<svg xmlns="http://www.w3.org/2000/svg" width="24" height="24" viewBox="0 0 24 24">
    <path fill="#FFF" fill-rule="evenodd" d="M12 23C5.925 23 1 18.075 1 12S5.925 1 12 1s11 4.925 11 11-4.925 11-11 11zm0-2a9 9 0 1 0 0-18 9 9 0 0 0 0 18zm3.744-11.832c0 .352-.056.672-.168.96-.112.288-.27.563-.472.824a5.26 5.26 0 0 1-.744.768c-.293.25-.621.52-.984.808-.16.117-.29.227-.392.328a1.631 1.631 0 0 0-.248.312 1.12 1.12 0 0 0-.136.36c-.027.133-.04.296-.04.488v.784h-1.952v-1.104c0-.203.013-.376.04-.52.027-.144.083-.288.168-.432.085-.144.208-.299.368-.464.16-.165.373-.37.64-.616.256-.235.475-.448.656-.64.181-.192.33-.376.448-.552a1.814 1.814 0 0 0 .336-1.064c0-.277-.059-.515-.176-.712a1.447 1.447 0 0 0-.48-.488 2.312 2.312 0 0 0-.72-.288 3.904 3.904 0 0 0-.88-.096 5.569 5.569 0 0 0-1.68.256V6.416c.373-.064.747-.117 1.12-.16a9.856 9.856 0 0 1 1.12-.064c.501 0 1.003.045 1.504.136.501.09.95.248 1.344.472.395.224.715.528.96.912s.368.87.368 1.456zM10.432 18v-2.048h2.272V18h-2.272z"/>
</svg>
