<?xml version="1.0" encoding="UTF-8" standalone="no"?>
<svg width="550" height="520" xmlns="http://www.w3.org/2000/svg">
 <g>
  <title>Regions Layout</title>
  <rect stroke="#000000" fill="#efefef" stroke-width="0" x="30" y="30" width="490" height="80" id="svg_2"/>
  <rect fill="#efefef" stroke-width="0" x="30" y="130" width="150" height="360" id="svg_4" stroke="#000000"/>
  <rect fill="#efefef" stroke-width="0" x="370" y="130" width="150" height="140" id="svg_6" stroke="#000000"/>
  <rect fill="#ffd4aa" stroke-width="0" x="200" y="290" width="320" height="180" id="svg_7" stroke="#000000"/>
  <ellipse fill="#ffffaa" stroke-width="0" stroke-dasharray="null" stroke-linejoin="null" stroke-linecap="null" cx="440" cy="390" id="svg_8" rx="60" ry="60" stroke="#ffaa56"/>
  <path fill="#aad4ff" stroke-width="0" stroke-dasharray="null" stroke-linejoin="null" stroke-linecap="null" d="m200,410l0,80l320,0l0,-80c-53.333313,10 -115.555542,10 -160,0c-44.444458,-10 -106.666656,-10 -160,0z" id="svg_18" stroke="#000000"/>
  <line stroke="#999999" fill-opacity="0" fill="none" stroke-dasharray="null" stroke-linejoin="null" stroke-linecap="null" x1="40" y1="80" x2="510" y2="80" id="svg_19" stroke-width="6"/>
  <line fill-opacity="0" fill="none" stroke="#999999" stroke-width="5" stroke-dasharray="null" stroke-linejoin="null" stroke-linecap="null" x1="40" y1="140" x2="170" y2="140" id="svg_21"/>
  <line fill-opacity="0" fill="none" stroke="#999999" stroke-width="5" stroke-dasharray="null" stroke-linejoin="null" stroke-linecap="null" x1="40" y1="160" x2="170" y2="160" id="svg_22"/>
  <line fill-opacity="0" fill="none" stroke="#999999" stroke-width="5" stroke-dasharray="null" stroke-linejoin="null" stroke-linecap="null" x1="40" y1="180" x2="170" y2="180" id="svg_23"/>
  <line fill-opacity="0" fill="none" stroke="#999999" stroke-width="5" stroke-dasharray="null" stroke-linejoin="null" stroke-linecap="null" x1="40" y1="200" x2="170" y2="200" id="svg_24"/>
  <line fill-opacity="0" fill="none" stroke="#999999" stroke-width="5" stroke-dasharray="null" stroke-linejoin="null" stroke-linecap="null" x1="40" y1="220" x2="170" y2="220" id="svg_25"/>
  <line stroke="#999999" fill-opacity="0" fill="none" stroke-width="5" stroke-dasharray="null" stroke-linejoin="null" stroke-linecap="null" x1="40" y1="240" x2="90" y2="240" id="svg_26"/>
  <line fill-opacity="0" fill="none" stroke="#999999" stroke-width="5" stroke-dasharray="null" stroke-linejoin="null" stroke-linecap="null" x1="40" y1="260" x2="170" y2="260" id="svg_27"/>
  <line fill-opacity="0" fill="none" stroke="#999999" stroke-width="5" stroke-dasharray="null" stroke-linejoin="null" stroke-linecap="null" x1="40" y1="280" x2="170" y2="280" id="svg_28"/>
  <line fill-opacity="0" fill="none" stroke="#999999" stroke-width="5" stroke-dasharray="null" stroke-linejoin="null" stroke-linecap="null" x1="40" y1="300" x2="170" y2="300" id="svg_29"/>
  <line stroke="#999999" fill-opacity="0" fill="none" stroke-width="5" stroke-dasharray="null" stroke-linejoin="null" stroke-linecap="null" x1="40" y1="320" x2="120" y2="320" id="svg_30"/>
  <line fill-opacity="0" fill="none" stroke="#999999" stroke-width="5" stroke-dasharray="null" stroke-linejoin="null" stroke-linecap="null" x1="380" y1="140" x2="510" y2="140" id="svg_31"/>
  <line fill-opacity="0" fill="none" stroke="#999999" stroke-width="5" stroke-dasharray="null" stroke-linejoin="null" stroke-linecap="null" x1="380" y1="160" x2="510" y2="160" id="svg_32"/>
  <line fill-opacity="0" fill="none" stroke="#999999" stroke-width="5" stroke-dasharray="null" stroke-linejoin="null" stroke-linecap="null" x1="380" y1="180" x2="510" y2="180" id="svg_33"/>
  <line stroke="#999999" fill-opacity="0" fill="none" stroke-width="5" stroke-dasharray="null" stroke-linejoin="null" stroke-linecap="null" x1="380" y1="200" x2="510" y2="200" id="svg_34"/>
  <line fill-opacity="0" fill="none" stroke="#999999" stroke-width="5" stroke-dasharray="null" stroke-linejoin="null" stroke-linecap="null" x1="380" y1="220" x2="510" y2="220" id="svg_35"/>
  <line stroke="#999999" fill-opacity="0" fill="none" stroke-width="5" stroke-dasharray="null" stroke-linejoin="null" stroke-linecap="null" x1="380" y1="240" x2="510" y2="240" id="svg_36"/>
  <line stroke="#999999" fill-opacity="0" fill="none" stroke-width="5" stroke-dasharray="null" stroke-linejoin="null" stroke-linecap="null" x1="380" y1="260" x2="450" y2="260" id="svg_37"/>
  <rect fill="#efefef" stroke-width="0" x="200" y="130" width="150" height="140" stroke="#000000" id="svg_39"/>
  <line fill-opacity="0" fill="none" stroke="#999999" stroke-width="5" stroke-dasharray="null" stroke-linejoin="null" stroke-linecap="null" x1="210" y1="140" x2="340" y2="140" id="svg_40"/>
  <line fill-opacity="0" fill="none" stroke="#999999" stroke-width="5" stroke-dasharray="null" stroke-linejoin="null" stroke-linecap="null" x1="210" y1="160" x2="340" y2="160" id="svg_41"/>
  <line stroke="#999999" fill-opacity="0" fill="none" stroke-width="5" stroke-dasharray="null" stroke-linejoin="null" stroke-linecap="null" x1="210" y1="180" x2="288.999997" y2="180" id="svg_42"/>
  <line fill-opacity="0" fill="none" stroke="#999999" stroke-width="5" stroke-dasharray="null" stroke-linejoin="null" stroke-linecap="null" x1="210" y1="200" x2="340" y2="200" id="svg_43"/>
  <line fill-opacity="0" fill="none" stroke="#999999" stroke-width="5" stroke-dasharray="null" stroke-linejoin="null" stroke-linecap="null" x1="210" y1="220" x2="340" y2="220" id="svg_44"/>
  <line fill-opacity="0" fill="none" stroke="#999999" stroke-width="5" stroke-dasharray="null" stroke-linejoin="null" stroke-linecap="null" x1="210" y1="240" x2="340" y2="240" id="svg_45"/>
  <line fill-opacity="0" fill="none" stroke="#999999" stroke-width="5" stroke-dasharray="null" stroke-linejoin="null" stroke-linecap="null" x1="210" y1="260" x2="340" y2="260" id="svg_46"/>
  <line fill-opacity="0" fill="none" stroke="#999999" stroke-width="5" stroke-dasharray="null" stroke-linejoin="null" stroke-linecap="null" x1="40" y1="340" x2="170" y2="340" id="svg_47"/>
  <line fill-opacity="0" fill="none" stroke="#999999" stroke-width="5" stroke-dasharray="null" stroke-linejoin="null" stroke-linecap="null" x1="40" y1="360" x2="170" y2="360" id="svg_48"/>
  <line fill-opacity="0" fill="none" stroke="#999999" stroke-width="5" stroke-dasharray="null" stroke-linejoin="null" stroke-linecap="null" x1="40" y1="380" x2="170" y2="380" id="svg_49"/>
  <line fill-opacity="0" fill="none" stroke="#999999" stroke-width="5" stroke-dasharray="null" stroke-linejoin="null" stroke-linecap="null" x1="40" y1="400" x2="170" y2="400" id="svg_50"/>
  <line stroke="#999999" fill-opacity="0" fill="none" stroke-width="5" stroke-dasharray="null" stroke-linejoin="null" stroke-linecap="null" x1="40" y1="420" x2="80" y2="420" id="svg_51"/>
  <line fill-opacity="0" fill="none" stroke="#999999" stroke-width="5" stroke-dasharray="null" stroke-linejoin="null" stroke-linecap="null" x1="40" y1="440" x2="170" y2="440" id="svg_52"/>
  <line fill-opacity="0" fill="none" stroke="#999999" stroke-width="5" stroke-dasharray="null" stroke-linejoin="null" stroke-linecap="null" x1="40" y1="460" x2="170" y2="460" id="svg_53"/>
  <line fill-opacity="0" fill="none" stroke="#999999" stroke-width="5" stroke-dasharray="null" stroke-linejoin="null" stroke-linecap="null" x1="40" y1="480" x2="170" y2="480" id="svg_54"/>
  <line stroke="#999999" fill-opacity="0" fill="none" stroke-dasharray="null" stroke-linejoin="null" stroke-linecap="null" x1="40" y1="100" x2="310" y2="100" stroke-width="6" id="svg_55"/>
  <line fill-opacity="0" fill="none" stroke-dasharray="null" stroke-linejoin="null" stroke-linecap="null" x1="40" y1="50" x2="90" y2="50" stroke-width="25" id="svg_56" stroke="#999999"/>
  <line fill="none" stroke-dasharray="null" stroke-linejoin="null" stroke-linecap="null" x1="100" y1="50" x2="230" y2="50" stroke-width="25" stroke="#999999" id="svg_57"/>
  <line fill="none" stroke-dasharray="null" stroke-linejoin="null" stroke-linecap="null" x1="240" y1="50" x2="270" y2="50" stroke-width="25" id="svg_58" stroke="#999999"/>
  <line fill="none" stroke-dasharray="null" stroke-linejoin="null" stroke-linecap="null" x1="280" y1="50" x2="380" y2="50" stroke-width="25" id="svg_59" stroke="#999999"/>
  <line fill="none" stroke-dasharray="null" stroke-linejoin="null" stroke-linecap="null" x1="390" y1="50" x2="420" y2="50" stroke-width="25" stroke="#999999" id="svg_60"/>
  <line fill-opacity="0" fill="none" stroke-dasharray="null" stroke-linejoin="null" stroke-linecap="null" x1="430" y1="50" x2="500" y2="50" stroke-width="25" id="svg_61" stroke="#999999"/>
 </g>
 <g>
  <title>Regions Flow Description</title>
  <ellipse stroke="#000000" ry="20" rx="20" id="svg_1" cy="40" cx="50" stroke-linecap="null" stroke-linejoin="null" stroke-dasharray="null" stroke-width="2" fill="#ffffff"/>
  <text transform="matrix(1 0 0 1 0 0)" stroke="#000000" xml:space="preserve" text-anchor="middle" font-family="RealObjects core sans-serif" font-size="24" id="svg_5" y="47.5" x="50" stroke-linecap="null" stroke-linejoin="null" stroke-dasharray="null" stroke-width="0" fill="#000000">1</text>
  <ellipse id="svg_13" stroke="#000000" ry="20" rx="20" cy="148.75" cx="49" stroke-linecap="null" stroke-linejoin="null" stroke-dasharray="null" stroke-width="2" fill="#ffffff"/>
  <text id="svg_14" stroke="#000000" xml:space="preserve" text-anchor="middle" font-family="RealObjects core sans-serif" font-size="24" y="157.5" x="49" stroke-linecap="null" stroke-linejoin="null" stroke-dasharray="null" stroke-width="0" fill="#000000">2</text>
  <ellipse id="svg_16" stroke="#000000" ry="20" rx="20" cy="148.75" cx="219" stroke-linecap="null" stroke-linejoin="null" stroke-dasharray="null" stroke-width="2" fill="#ffffff"/>
  <text id="svg_17" stroke="#000000" xml:space="preserve" text-anchor="middle" font-family="RealObjects core sans-serif" font-size="24" y="157.5" x="219" stroke-linecap="null" stroke-linejoin="null" stroke-dasharray="null" stroke-width="0" fill="#000000">3</text>
  <ellipse id="svg_38" stroke="#000000" ry="20" rx="20" cy="148.75" cx="389" stroke-linecap="null" stroke-linejoin="null" stroke-dasharray="null" stroke-width="2" fill="#ffffff"/>
  <text transform="matrix(1 0 0 1 0 0)" id="svg_62" stroke="#000000" xml:space="preserve" text-anchor="middle" font-family="RealObjects core sans-serif" font-size="24" y="157.5" x="389" stroke-linecap="null" stroke-linejoin="null" stroke-dasharray="null" stroke-width="0" fill="#000000">4</text>
  <path id="svg_66" d="m320,98c-40,40 -190,0 -230,40" stroke-linecap="null" stroke-linejoin="null" stroke-dasharray="null" stroke-width="3" stroke="#000000" fill="none"/>
  <path id="svg_67" d="m160,490c80,60 0,-240 40,-310" stroke-linecap="null" stroke-linejoin="null" stroke-dasharray="null" stroke-width="3" stroke="#000000" fill="none"/>
  <path id="svg_68" d="m330,270c53.333344,40 16.666656,-60 40,-90" stroke-linecap="null" stroke-linejoin="null" stroke-dasharray="null" stroke-width="3" stroke="#000000" fill="none"/>
  <path transform="rotate(26.2769 199.945 180.302)" stroke="#000000" id="svg_69" d="m195.445007,185.80188l4.5,-11l4.5,11l-9,0z" stroke-linecap="null" stroke-linejoin="null" stroke-dasharray="null" stroke-width="4" fill="#000000"/>
  <path transform="rotate(-130 88.5 139.75)" id="svg_71" stroke="#000000" d="m84,145.25l4.5,-11l4.5,11l-9,0z" stroke-linecap="null" stroke-linejoin="null" stroke-dasharray="null" stroke-width="4" fill="#000000"/>
  <path id="svg_72" transform="rotate(26.2769 369.517 178.254)" stroke="#000000" d="m365.017456,183.753891l4.5,-11l4.5,11l-9,0z" stroke-linecap="null" stroke-linejoin="null" stroke-dasharray="null" stroke-width="4" fill="#000000"/>
 </g>
</svg>